<svg width="2647" height="475" xmlns="http://www.w3.org/2000/svg" xmlns:xlink="http://www.w3.org/1999/xlink" xml:space="preserve" overflow="hidden"><defs><clipPath id="clip0"><rect x="579" y="100" width="2647" height="475"/></clipPath></defs><g clip-path="url(#clip0)" transform="translate(-579 -100)"><path d="M2664 251.366C2644.89 317.398 2547.24 360 2407.12 353.61 2252.15 360 2146 306.748 2146 227.935 2146 153.382 2252.15 98 2407.12 100.13 2547.24 98 2644.89 142.732 2664 208.764 2455.95 208.764 2455.95 208.764 2455.95 208.764 2445.34 191.724 2428.35 181.073 2407.12 181.073 2377.4 181.073 2354.05 202.374 2354.05 230.065 2354.05 255.626 2377.4 279.057 2407.12 279.057 2428.35 279.057 2445.34 268.406 2455.95 251.366L2664 251.366Z" fill="#020203" fill-rule="evenodd"/><path d="M2031.32 232.259C2148 343 2148 343 2148 343 1910.4 343 1910.4 343 1910.4 343 1838.27 268.463 1838.27 268.463 1838.27 268.463 1872.21 268.463 1872.21 268.463 1872.21 268.463 1895.55 268.463 1914.64 249.296 1914.64 228 1914.64 206.704 1897.67 185.408 1872.21 185.408 1823.42 185.408 1823.42 185.408 1823.42 185.408 1823.42 343 1823.42 343 1823.42 343 1624 343 1624 343 1624 343 1624 113 1624 113 1624 113 2056.78 113 2056.78 113 2056.78 113 2094.96 113 2122.54 140.685 2122.54 174.759 2122.54 206.704 2094.96 232.259 2056.78 232.259L2031.32 232.259Z" fill="#020203" fill-rule="evenodd"/><path d="M1289.55 113C1289.55 199.991 1289.55 199.991 1289.55 199.991 1289.55 238.183 1312.93 248.791 1340.56 248.791 1368.19 248.791 1393.7 236.061 1391.58 199.991 1391.58 113 1391.58 113 1391.58 113 1585 113 1585 113 1585 113 1585 248.791 1585 248.791 1585 248.791 1580.75 314.565 1480.85 357 1340.56 352.757 1193.9 357 1094 312.444 1094 240.304 1094 113 1094 113 1094 113L1289.55 113Z" fill="#020203" fill-rule="evenodd"/><path d="M579 113 579 225.745 718.296 225.745 718.296 343 916.008 343 916.008 225.745 1058 225.745 1058 113 579 113Z" fill="#020203" fill-rule="evenodd"/><path d="M3006.48 113 2898.52 213.118 2898.52 113 2697 113 2697 343 2898.52 343 2898.52 244.686 2998.39 343 3226 343 3106.35 223.039 3223.3 113 3006.48 113Z" fill="#020203" fill-rule="evenodd"/><path d="M3192.25 572.881C3200.69 572.881 3200.69 572.881 3200.69 572.881 3200.69 526.271 3200.69 526.271 3200.69 526.271 3200.69 524.153 3200.69 522.034 3200.69 517.797 3202.8 505.085 3211.24 496.61 3221.78 496.61 3223.89 496.61 3226 496.61 3226 496.61 3226 488.136 3226 488.136 3226 488.136 3226 488.136 3223.89 488.136 3223.89 488.136 3211.24 488.136 3202.8 496.61 3198.58 507.203 3198.58 507.203 3198.58 507.203 3198.58 507.203 3198.58 490.254 3198.58 490.254 3198.58 490.254 3192.25 490.254 3192.25 490.254 3192.25 490.254 3192.25 496.61 3192.25 505.085 3192.25 513.559L3192.25 572.881ZM3109.99 524.153C3112.1 511.441 3120.54 494.492 3137.41 494.492 3158.5 494.492 3162.72 511.441 3162.72 524.153L3109.99 524.153ZM3171.16 530.509C3171.16 528.39 3171.16 526.271 3171.16 524.153 3171.16 513.559 3164.83 488.136 3139.52 488.136 3118.43 488.136 3101.55 505.085 3101.55 532.627 3101.55 555.932 3116.32 575 3139.52 575 3154.28 575 3162.72 570.763 3166.94 568.644 3164.83 562.288 3164.83 562.288 3164.83 562.288 3158.5 564.407 3154.28 566.526 3141.63 566.526 3124.75 566.526 3109.99 555.932 3109.99 530.509L3171.16 530.509ZM3017.18 572.881C3025.62 572.881 3025.62 572.881 3025.62 572.881 3025.62 522.034 3025.62 522.034 3025.62 522.034 3025.62 517.797 3025.62 515.678 3025.62 513.559 3029.84 502.966 3038.27 494.492 3050.93 494.492 3067.8 494.492 3074.13 509.322 3074.13 524.153 3074.13 572.881 3074.13 572.881 3074.13 572.881 3080.46 572.881 3080.46 572.881 3080.46 572.881 3080.46 522.034 3080.46 522.034 3080.46 522.034 3080.46 492.373 3061.48 488.136 3053.04 488.136 3038.27 488.136 3029.84 494.492 3023.51 505.085 3023.51 505.085 3023.51 505.085 3023.51 505.085 3023.51 490.254 3023.51 490.254 3023.51 490.254 3015.07 490.254 3015.07 490.254 3015.07 490.254 3017.18 496.61 3017.18 500.847 3017.18 509.322L3017.18 572.881ZM2966.56 473.305C2966.56 490.254 2966.56 490.254 2966.56 490.254 2951.79 490.254 2951.79 490.254 2951.79 490.254 2951.79 496.61 2951.79 496.61 2951.79 496.61 2966.56 496.61 2966.56 496.61 2966.56 496.61 2966.56 549.576 2966.56 549.576 2966.56 549.576 2966.56 558.051 2968.67 564.407 2970.78 568.644 2975 572.881 2979.21 575 2985.54 575 2989.76 575 2993.98 572.881 2998.2 572.881 2996.09 566.526 2996.09 566.526 2996.09 566.526 2993.98 566.526 2991.87 566.526 2987.65 566.526 2977.1 566.526 2975 560.17 2975 549.576 2975 496.61 2975 496.61 2975 496.61 2998.2 496.61 2998.2 496.61 2998.2 496.61 2998.2 490.254 2998.2 490.254 2998.2 490.254 2975 490.254 2975 490.254 2975 490.254 2975 471.186 2975 471.186 2975 471.186L2966.56 473.305ZM2907.5 572.881C2915.94 572.881 2915.94 572.881 2915.94 572.881 2915.94 526.271 2915.94 526.271 2915.94 526.271 2915.94 524.153 2915.94 522.034 2915.94 517.797 2920.15 505.085 2926.48 496.61 2939.14 496.61 2939.14 496.61 2941.25 496.61 2943.36 496.61 2943.36 488.136 2943.36 488.136 2943.36 488.136 2941.25 488.136 2941.25 488.136 2939.14 488.136 2928.59 488.136 2920.15 496.61 2915.94 507.203 2915.94 507.203 2915.94 507.203 2915.94 507.203 2915.94 490.254 2915.94 490.254 2915.94 490.254 2907.5 490.254 2907.5 490.254 2907.5 490.254 2907.5 496.61 2907.5 505.085 2907.5 513.559L2907.5 572.881ZM2873.75 545.339C2873.75 547.458 2873.75 549.576 2871.64 551.695 2869.53 558.051 2861.09 566.526 2848.44 566.526 2840 566.526 2831.56 562.288 2831.56 549.576 2831.56 530.509 2854.77 528.39 2873.75 528.39L2873.75 545.339ZM2882.19 519.915C2882.19 505.085 2877.97 488.136 2852.66 488.136 2846.33 488.136 2835.78 490.254 2829.45 494.492 2831.56 500.847 2831.56 500.847 2831.56 500.847 2837.89 496.61 2844.22 494.492 2852.66 494.492 2871.64 494.492 2873.75 511.441 2873.75 519.915 2873.75 522.034 2873.75 522.034 2873.75 522.034 2840 519.915 2823.13 532.627 2823.13 551.695 2823.13 562.288 2831.56 575 2846.33 575 2861.09 575 2869.53 566.526 2873.75 560.17 2873.75 560.17 2873.75 560.17 2873.75 560.17 2875.86 572.881 2875.86 572.881 2875.86 572.881 2882.19 572.881 2882.19 572.881 2882.19 572.881 2882.19 566.526 2882.19 560.17 2882.19 551.695L2882.19 519.915ZM2757.74 462.712C2759.85 462.712 2766.18 462.712 2774.61 462.712 2791.49 462.712 2806.25 471.186 2806.25 488.136 2806.25 507.203 2793.6 517.797 2772.5 517.797 2766.18 517.797 2761.96 515.678 2757.74 515.678L2757.74 462.712ZM2749.3 572.881C2757.74 572.881 2757.74 572.881 2757.74 572.881 2757.74 522.034 2757.74 522.034 2757.74 522.034 2761.96 524.153 2766.18 524.153 2770.39 524.153 2785.16 524.153 2797.82 519.915 2806.25 511.441 2810.47 505.085 2812.58 498.729 2812.58 488.136 2812.58 477.542 2810.47 471.186 2804.14 464.831 2797.82 458.475 2787.27 454.237 2774.61 454.237 2764.07 454.237 2755.63 456.356 2749.3 456.356L2749.3 572.881ZM2618.53 572.881C2626.96 572.881 2626.96 572.881 2626.96 572.881 2626.96 522.034 2626.96 522.034 2626.96 522.034 2626.96 517.797 2626.96 515.678 2629.07 513.559 2631.18 502.966 2641.73 494.492 2652.27 494.492 2671.26 494.492 2675.48 509.322 2675.48 524.153 2675.48 572.881 2675.48 572.881 2675.48 572.881 2683.91 572.881 2683.91 572.881 2683.91 572.881 2683.91 522.034 2683.91 522.034 2683.91 522.034 2683.91 492.373 2662.82 488.136 2656.49 488.136 2641.73 488.136 2631.18 494.492 2626.96 505.085 2626.96 505.085 2626.96 505.085 2626.96 505.085 2626.96 490.254 2626.96 490.254 2626.96 490.254 2618.53 490.254 2618.53 490.254 2618.53 490.254 2618.53 496.61 2618.53 500.847 2618.53 509.322L2618.53 572.881ZM2559.47 494.492C2580.56 494.492 2591.11 515.678 2591.11 530.509 2591.11 551.695 2576.34 566.526 2559.47 566.526 2542.59 566.526 2529.94 551.695 2529.94 530.509 2529.94 513.559 2538.37 494.492 2559.47 494.492M2559.47 488.136C2540.48 488.136 2521.5 502.966 2521.5 532.627 2521.5 558.051 2538.37 575 2559.47 575 2576.34 575 2597.43 560.17 2597.43 530.509 2597.43 505.085 2582.67 488.136 2559.47 488.136M2496.19 458.475C2491.97 458.475 2489.86 462.712 2489.86 464.831 2489.86 469.068 2491.97 473.305 2496.19 473.305 2500.41 473.305 2502.52 469.068 2502.52 464.831 2502.52 462.712 2500.41 458.475 2496.19 458.475M2500.41 490.254C2491.97 490.254 2491.97 490.254 2491.97 490.254 2491.97 572.881 2491.97 572.881 2491.97 572.881 2500.41 572.881 2500.41 572.881 2500.41 572.881L2500.41 490.254ZM2441.35 473.305C2441.35 490.254 2441.35 490.254 2441.35 490.254 2428.69 490.254 2428.69 490.254 2428.69 490.254 2428.69 496.61 2428.69 496.61 2428.69 496.61 2441.35 496.61 2441.35 496.61 2441.35 496.61 2441.35 549.576 2441.35 549.576 2441.35 549.576 2441.35 558.051 2443.46 564.407 2447.67 568.644 2449.78 572.881 2456.11 575 2460.33 575 2466.66 575 2470.88 572.881 2472.99 572.881 2470.88 566.526 2470.88 566.526 2470.88 566.526 2468.77 566.526 2466.66 566.526 2462.44 566.526 2454 566.526 2449.78 560.17 2449.78 549.576 2449.78 496.61 2449.78 496.61 2449.78 496.61 2472.99 496.61 2472.99 496.61 2472.99 496.61 2472.99 490.254 2472.99 490.254 2472.99 490.254 2449.78 490.254 2449.78 490.254 2449.78 490.254 2449.78 471.186 2449.78 471.186 2449.78 471.186L2441.35 473.305ZM2403.38 545.339C2403.38 547.458 2403.38 549.576 2403.38 551.695 2399.16 558.051 2392.83 566.526 2378.07 566.526 2369.63 566.526 2361.19 562.288 2361.19 549.576 2361.19 530.509 2386.5 528.39 2403.38 528.39L2403.38 545.339ZM2411.82 519.915C2411.82 505.085 2407.6 488.136 2384.4 488.136 2375.96 488.136 2367.52 490.254 2359.08 494.492 2361.19 500.847 2361.19 500.847 2361.19 500.847 2367.52 496.61 2375.96 494.492 2382.29 494.492 2403.38 494.492 2403.38 511.441 2403.38 519.915 2403.38 522.034 2403.38 522.034 2403.38 522.034 2369.63 519.915 2352.76 532.627 2352.76 551.695 2352.76 562.288 2361.19 575 2378.07 575 2390.72 575 2399.16 566.526 2403.38 560.17 2405.49 560.17 2405.49 560.17 2405.49 560.17 2405.49 572.881 2405.49 572.881 2405.49 572.881 2413.93 572.881 2413.93 572.881 2413.93 572.881 2411.82 566.526 2411.82 560.17 2411.82 551.695L2411.82 519.915ZM2219.87 572.881C2228.31 572.881 2228.31 572.881 2228.31 572.881 2228.31 522.034 2228.31 522.034 2228.31 522.034 2228.31 517.797 2228.31 515.678 2230.42 513.559 2232.53 502.966 2240.96 494.492 2251.51 494.492 2266.28 494.492 2272.6 505.085 2272.6 519.915 2272.6 572.881 2272.6 572.881 2272.6 572.881 2281.04 572.881 2281.04 572.881 2281.04 572.881 2281.04 519.915 2281.04 519.915 2281.04 519.915 2281.04 515.678 2281.04 513.559 2283.15 511.441 2285.26 502.966 2293.7 494.492 2304.24 494.492 2319.01 494.492 2325.34 505.085 2325.34 524.153 2325.34 572.881 2325.34 572.881 2325.34 572.881 2333.77 572.881 2333.77 572.881 2333.77 572.881 2333.77 524.153 2333.77 524.153 2333.77 524.153 2333.77 492.373 2314.79 488.136 2306.35 488.136 2297.92 488.136 2291.59 490.254 2287.37 494.492 2283.15 496.61 2281.04 500.847 2278.93 505.085 2278.93 505.085 2278.93 505.085 2278.93 505.085 2274.71 494.492 2266.28 488.136 2253.62 488.136 2240.96 488.136 2232.53 494.492 2228.31 505.085 2228.31 505.085 2228.31 505.085 2228.31 505.085 2226.2 490.254 2226.2 490.254 2226.2 490.254 2219.87 490.254 2219.87 490.254 2219.87 490.254 2219.87 496.61 2219.87 500.847 2219.87 509.322L2219.87 572.881ZM2160.81 494.492C2181.9 494.492 2190.34 515.678 2190.34 530.509 2190.34 551.695 2177.69 566.526 2160.81 566.526 2143.94 566.526 2129.17 551.695 2129.17 530.509 2129.17 513.559 2139.72 494.492 2160.81 494.492M2160.81 488.136C2139.72 488.136 2120.73 502.966 2120.73 532.627 2120.73 558.051 2137.61 575 2158.7 575 2177.69 575 2198.78 560.17 2198.78 530.509 2198.78 505.085 2184.01 488.136 2160.81 488.136M2080.66 473.305C2080.66 490.254 2080.66 490.254 2080.66 490.254 2065.89 490.254 2065.89 490.254 2065.89 490.254 2065.89 496.61 2065.89 496.61 2065.89 496.61 2080.66 496.61 2080.66 496.61 2080.66 496.61 2080.66 549.576 2080.66 549.576 2080.66 549.576 2080.66 558.051 2080.66 564.407 2084.88 568.644 2086.99 572.881 2093.31 575 2099.64 575 2103.86 575 2108.08 572.881 2110.19 572.881 2110.19 566.526 2110.19 566.526 2110.19 566.526 2108.08 566.526 2103.86 566.526 2099.64 566.526 2091.21 566.526 2086.99 560.17 2086.99 549.576 2086.99 496.61 2086.99 496.61 2086.99 496.61 2112.3 496.61 2112.3 496.61 2112.3 496.61 2112.3 490.254 2112.3 490.254 2112.3 490.254 2086.99 490.254 2086.99 490.254 2086.99 490.254 2086.99 471.186 2086.99 471.186 2086.99 471.186L2080.66 473.305ZM2049.02 490.254C2040.58 490.254 2040.58 490.254 2040.58 490.254 2040.58 541.102 2040.58 541.102 2040.58 541.102 2040.58 545.339 2040.58 547.458 2038.47 549.576 2036.36 558.051 2025.82 566.526 2015.27 566.526 1998.4 566.526 1992.07 553.814 1992.07 536.864 1992.07 490.254 1992.07 490.254 1992.07 490.254 1983.63 490.254 1983.63 490.254 1983.63 490.254 1983.63 536.864 1983.63 536.864 1983.63 536.864 1983.63 568.644 2002.62 575 2013.16 575 2027.93 575 2036.36 564.407 2040.58 558.051 2040.58 558.051 2040.58 558.051 2040.58 558.051 2042.69 572.881 2042.69 572.881 2042.69 572.881 2049.02 572.881 2049.02 572.881 2049.02 572.881 2049.02 566.526 2049.02 560.17 2049.02 551.695L2049.02 490.254ZM1903.48 524.153C1916.13 486.017 1916.13 486.017 1916.13 486.017 1920.35 477.542 1922.46 471.186 1922.46 464.831 1924.57 464.831 1924.57 464.831 1924.57 464.831 1924.57 471.186 1926.68 477.542 1928.79 486.017 1943.56 524.153 1943.56 524.153 1943.56 524.153L1903.48 524.153ZM1945.66 532.627C1960.43 572.881 1960.43 572.881 1960.43 572.881 1968.87 572.881 1968.87 572.881 1968.87 572.881 1926.68 456.356 1926.68 456.356 1926.68 456.356 1920.35 456.356 1920.35 456.356 1920.35 456.356 1878.17 572.881 1878.17 572.881 1878.17 572.881 1886.6 572.881 1886.6 572.881 1886.6 572.881 1901.37 532.627 1901.37 532.627 1901.37 532.627L1945.66 532.627ZM1812.78 572.881C1821.22 572.881 1821.22 572.881 1821.22 572.881 1821.22 450 1821.22 450 1821.22 450 1812.78 450 1812.78 450 1812.78 450L1812.78 572.881ZM1776.92 545.339C1776.92 547.458 1776.92 549.576 1776.92 551.695 1772.7 558.051 1766.38 566.526 1751.61 566.526 1743.17 566.526 1734.74 562.288 1734.74 549.576 1734.74 530.509 1760.05 528.39 1776.92 528.39L1776.92 545.339ZM1785.36 519.915C1785.36 505.085 1781.14 488.136 1757.94 488.136 1749.5 488.136 1741.06 490.254 1732.63 494.492 1734.74 500.847 1734.74 500.847 1734.74 500.847 1741.06 496.61 1749.5 494.492 1755.83 494.492 1776.92 494.492 1776.92 511.441 1776.92 519.915 1776.92 522.034 1776.92 522.034 1776.92 522.034 1743.17 519.915 1726.3 532.627 1726.3 551.695 1726.3 562.288 1734.74 575 1751.61 575 1764.27 575 1772.7 566.526 1776.92 560.17 1779.03 560.17 1779.03 560.17 1779.03 560.17 1779.03 572.881 1779.03 572.881 1779.03 572.881 1787.47 572.881 1787.47 572.881 1787.47 572.881 1785.36 566.526 1785.36 560.17 1785.36 551.695L1785.36 519.915ZM1648.26 524.153C1648.26 519.915 1648.26 517.797 1648.26 515.678 1652.47 502.966 1663.02 494.492 1675.68 494.492 1694.66 494.492 1705.21 511.441 1705.21 530.509 1705.21 551.695 1694.66 566.526 1675.68 566.526 1663.02 566.526 1652.47 558.051 1648.26 547.458 1648.26 545.339 1648.26 543.22 1648.26 541.102L1648.26 524.153ZM1639.82 553.814C1639.82 560.17 1639.82 566.526 1637.71 572.881 1646.15 572.881 1646.15 572.881 1646.15 572.881 1646.15 558.051 1646.15 558.051 1646.15 558.051 1646.15 558.051 1646.15 558.051 1646.15 558.051 1652.47 568.644 1663.02 575 1675.68 575 1694.66 575 1713.64 560.17 1713.64 530.509 1713.64 505.085 1698.88 488.136 1677.79 488.136 1663.02 488.136 1652.47 494.492 1648.26 505.085 1648.26 505.085 1648.26 505.085 1648.26 505.085 1648.26 450 1648.26 450 1648.26 450 1639.82 450 1639.82 450 1639.82 450L1639.82 553.814ZM1580.76 494.492C1601.85 494.492 1610.29 515.678 1610.29 530.509 1610.29 551.695 1597.63 566.526 1578.65 566.526 1561.77 566.526 1549.12 551.695 1549.12 530.509 1549.12 513.559 1559.67 494.492 1580.76 494.492M1580.76 488.136C1559.67 488.136 1540.68 502.966 1540.68 532.627 1540.68 558.051 1557.56 575 1578.65 575 1597.63 575 1618.73 560.17 1618.73 530.509 1618.73 505.085 1603.96 488.136 1580.76 488.136M1511.15 572.881C1519.59 572.881 1519.59 572.881 1519.59 572.881 1519.59 450 1519.59 450 1519.59 450 1511.15 450 1511.15 450 1511.15 450L1511.15 572.881ZM1487.95 515.678C1452.09 515.678 1452.09 515.678 1452.09 515.678 1452.09 522.034 1452.09 522.034 1452.09 522.034 1479.51 522.034 1479.51 522.034 1479.51 522.034 1479.51 562.288 1479.51 562.288 1479.51 562.288 1475.29 564.407 1466.86 566.526 1454.2 566.526 1424.67 566.526 1405.69 547.458 1405.69 513.559 1405.69 481.78 1424.67 462.712 1456.31 462.712 1466.86 462.712 1475.29 464.831 1481.62 466.949 1483.73 460.593 1483.73 460.593 1483.73 460.593 1479.51 458.475 1468.97 454.237 1456.31 454.237 1418.34 454.237 1397.25 481.78 1397.25 513.559 1397.25 532.627 1403.58 549.576 1412.02 558.051 1424.67 568.644 1439.44 572.881 1454.2 572.881 1468.97 572.881 1481.62 568.644 1487.95 566.526L1487.95 515.678ZM1314.99 572.881C1323.43 572.881 1323.43 572.881 1323.43 572.881 1323.43 526.271 1323.43 526.271 1323.43 526.271 1323.43 524.153 1323.43 522.034 1325.53 517.797 1327.64 505.085 1336.08 496.61 1346.63 496.61 1348.74 496.61 1348.74 496.61 1350.85 496.61 1350.85 488.136 1350.85 488.136 1350.85 488.136 1348.74 488.136 1348.74 488.136 1346.63 488.136 1336.08 488.136 1327.64 496.61 1323.43 507.203 1323.43 507.203 1323.43 507.203 1323.43 507.203 1323.43 490.254 1323.43 490.254 1323.43 490.254 1314.99 490.254 1314.99 490.254 1314.99 490.254 1314.99 496.61 1314.99 505.085 1314.99 513.559L1314.99 572.881ZM1287.57 490.254C1279.13 490.254 1279.13 490.254 1279.13 490.254 1279.13 541.102 1279.13 541.102 1279.13 541.102 1279.13 545.339 1279.13 547.458 1279.13 549.576 1274.91 558.051 1266.47 566.526 1253.82 566.526 1236.94 566.526 1232.73 553.814 1232.73 536.864 1232.73 490.254 1232.73 490.254 1232.73 490.254 1224.29 490.254 1224.29 490.254 1224.29 490.254 1224.29 536.864 1224.29 536.864 1224.29 536.864 1224.29 568.644 1241.16 575 1251.71 575 1266.47 575 1277.02 564.407 1281.24 558.051 1281.24 558.051 1281.24 558.051 1281.24 558.051 1281.24 572.881 1281.24 572.881 1281.24 572.881 1289.68 572.881 1289.68 572.881 1289.68 572.881 1287.57 566.526 1287.57 560.17 1287.57 551.695L1287.57 490.254ZM1165.23 494.492C1186.32 494.492 1194.76 515.678 1194.76 530.509 1194.76 551.695 1182.1 566.526 1165.23 566.526 1148.35 566.526 1133.59 551.695 1133.59 530.509 1133.59 513.559 1144.14 494.492 1165.23 494.492M1165.23 488.136C1144.14 488.136 1127.26 502.966 1127.26 532.627 1127.26 558.051 1142.03 575 1165.23 575 1182.1 575 1203.2 560.17 1203.2 530.509 1203.2 505.085 1188.43 488.136 1165.23 488.136M1089.29 572.881C1089.29 522.034 1089.29 522.034 1089.29 522.034 1129.37 456.356 1129.37 456.356 1129.37 456.356 1120.93 456.356 1120.93 456.356 1120.93 456.356 1099.84 490.254 1099.84 490.254 1099.84 490.254 1095.62 498.729 1091.4 507.203 1087.19 515.678 1087.19 515.678 1087.19 515.678 1087.19 515.678 1082.97 507.203 1078.75 500.847 1072.42 490.254 1053.44 456.356 1053.44 456.356 1053.44 456.356 1045 456.356 1045 456.356 1045 456.356 1082.97 522.034 1082.97 522.034 1082.97 522.034 1082.97 572.881 1082.97 572.881 1082.97 572.881L1089.29 572.881Z" fill="#020203" fill-rule="evenodd"/></g></svg>
