<svg width="4401" height="1484" xmlns="http://www.w3.org/2000/svg" xmlns:xlink="http://www.w3.org/1999/xlink" xml:space="preserve" overflow="hidden"><g transform="translate(1 -494)"><path d="M-0.694357 494.484 4399.31 494.484 4399.31 1977.48-0.694357 1977.48Z" fill="#FED200" fill-rule="evenodd"/><path d="M3278.05 1246.04 3551.65 1246.04 3551.65 1381.92 3698.25 1246.04 3992.65 1246.04 3833.84 1395.41 3996.31 1558.21 3687.28 1558.21 3551.65 1424.79 3551.65 1558.21 3278.05 1558.21ZM1821.17 1246.04C2408.79 1246.04 2408.79 1246.04 2408.79 1246.04 2460.63 1246.04 2498.08 1283.61 2498.08 1329.86 2498.08 1373.24 2460.63 1407.91 2408.79 1407.91L2374.22 1407.91C2532.65 1558.21 2532.65 1558.21 2532.65 1558.21 2210.04 1558.21 2210.04 1558.21 2210.04 1558.21 2112.11 1457.07 2112.11 1457.07 2112.11 1457.07 2158.17 1457.07 2158.17 1457.07 2158.17 1457.07 2189.87 1457.07 2215.79 1431.04 2215.79 1402.14 2215.79 1373.24 2192.74 1344.31 2158.17 1344.31 2091.93 1344.31 2091.93 1344.31 2091.93 1344.31 2091.93 1558.21 2091.93 1558.21 2091.93 1558.21 1821.17 1558.21 1821.17 1558.21 1821.17 1558.21 1821.17 1246.04 1821.17 1246.04 1821.17 1246.04ZM1101.55 1246.04 1367.08 1246.04C1367.08 1364.12 1367.08 1364.12 1367.08 1364.12 1367.08 1415.94 1398.81 1430.36 1436.32 1430.36 1473.84 1430.36 1508.48 1413.07 1505.6 1364.12 1505.6 1246.04 1505.6 1246.04 1505.6 1246.04 1768.23 1246.04 1768.23 1246.04 1768.23 1246.04 1768.23 1430.36 1768.23 1430.36 1768.23 1430.36 1762.45 1519.61 1626.8 1577.24 1436.32 1571.46 1237.2 1577.24 1101.55 1516.74 1101.55 1418.85 1101.55 1246.04 1101.55 1246.04 1101.55 1246.04ZM402.305 1246.04 1052.68 1246.04 1052.68 1399.07 859.882 1399.07 859.882 1558.21 591.444 1558.21 591.444 1399.07 402.305 1399.07ZM2884.46 1228.58C3074.72 1225.68 3207.3 1286.41 3233.26 1376.01 2950.76 1376.01 2950.76 1376.01 2950.76 1376.01 2936.37 1352.89 2913.28 1338.44 2884.46 1338.44 2844.11 1338.44 2812.41 1367.37 2812.41 1404.94 2812.41 1439.61 2844.11 1471.42 2884.46 1471.42 2913.28 1471.42 2936.37 1456.97 2950.76 1433.84L3233.26 1433.84C3207.3 1523.47 3074.72 1581.3 2884.46 1572.63 2674.05 1581.3 2529.91 1509.02 2529.91 1402.04 2529.91 1300.86 2674.05 1225.68 2884.46 1228.58Z" fill="#333333" fill-rule="evenodd"/></g></svg>