<svg width="1287" height="434" xmlns="http://www.w3.org/2000/svg" xmlns:xlink="http://www.w3.org/1999/xlink" xml:space="preserve" overflow="hidden"><g transform="translate(-1924 -4204)"><rect x="1924" y="4204" width="1287" height="434" fill="#FED200"/><path d="M2882.96 4376.14 2962.97 4376.14 2962.97 4415.92 3005.84 4376.14 3091.93 4376.14 3045.49 4419.87 3093 4467.53 3002.63 4467.53 2962.97 4428.47 2962.97 4467.53 2882.96 4467.53ZM2456.92 4376.14C2628.76 4376.14 2628.76 4376.14 2628.76 4376.14 2643.92 4376.14 2654.87 4387.14 2654.87 4400.68 2654.87 4413.38 2643.92 4423.53 2628.76 4423.53L2618.65 4423.53C2664.98 4467.53 2664.98 4467.53 2664.98 4467.53 2570.64 4467.53 2570.64 4467.53 2570.64 4467.53 2542 4437.92 2542 4437.92 2542 4437.92 2555.47 4437.92 2555.47 4437.92 2555.47 4437.92 2564.74 4437.92 2572.32 4430.3 2572.32 4421.84 2572.32 4413.38 2565.58 4404.91 2555.47 4404.91 2536.1 4404.91 2536.1 4404.91 2536.1 4404.91 2536.1 4467.53 2536.1 4467.53 2536.1 4467.53 2456.92 4467.53 2456.92 4467.53 2456.92 4467.53 2456.92 4376.14 2456.92 4376.14 2456.92 4376.14ZM2246.48 4376.14 2324.13 4376.14C2324.13 4410.71 2324.13 4410.71 2324.13 4410.71 2324.13 4425.88 2333.41 4430.1 2344.38 4430.1 2355.35 4430.1 2365.48 4425.04 2364.64 4410.71 2364.64 4376.14 2364.64 4376.14 2364.64 4376.14 2441.44 4376.14 2441.44 4376.14 2441.44 4376.14 2441.44 4430.1 2441.44 4430.1 2441.44 4430.1 2439.75 4456.23 2400.08 4473.1 2344.38 4471.41 2286.15 4473.1 2246.48 4455.39 2246.48 4426.73 2246.48 4376.14 2246.48 4376.14 2246.48 4376.14ZM2042 4376.14 2232.19 4376.14 2232.19 4420.94 2175.81 4420.94 2175.81 4467.53 2097.31 4467.53 2097.31 4420.94 2042 4420.94ZM2767.86 4371.03C2823.5 4370.18 2862.27 4387.96 2869.86 4414.19 2787.25 4414.19 2787.25 4414.19 2787.25 4414.19 2783.04 4407.42 2776.29 4403.19 2767.86 4403.19 2756.06 4403.19 2746.79 4411.66 2746.79 4422.66 2746.79 4432.81 2756.06 4442.12 2767.86 4442.12 2776.29 4442.12 2783.04 4437.89 2787.25 4431.12L2869.86 4431.12C2862.27 4457.36 2823.5 4474.29 2767.86 4471.75 2706.33 4474.29 2664.18 4453.13 2664.18 4421.81 2664.18 4392.19 2706.33 4370.18 2767.86 4371.03Z" fill="#333333" fill-rule="evenodd"/></g></svg>