<svg width="2036" height="2037" xmlns="http://www.w3.org/2000/svg" xmlns:xlink="http://www.w3.org/1999/xlink" xml:space="preserve" overflow="hidden"><defs><clipPath id="clip0"><rect x="1182" y="219" width="2036" height="2037"/></clipPath></defs><g clip-path="url(#clip0)" transform="translate(-1182 -219)"><rect x="1182" y="219" width="2036" height="2037" fill="#F2F2F2"/><g><g><g><path d="M1769.57 232.664C1758.44 270.999 1701.58 295.765 1620.03 292.032 1529.87 295.765 1468.06 264.825 1468.06 219.024 1468.06 175.736 1529.87 143.575 1620.03 144.796 1701.58 143.575 1758.44 169.563 1769.57 207.897 1648.46 207.897 1648.46 207.897 1648.46 207.897 1642.29 197.991 1632.38 191.817 1620.03 191.817 1602.73 191.817 1589.16 204.164 1589.16 220.245 1589.16 235.105 1602.73 248.673 1620.03 248.673 1632.38 248.673 1642.29 242.499 1648.46 232.592L1769.57 232.592Z" fill="#D9D9D9" fill-rule="evenodd" transform="matrix(1 0 0 1.00269 874.081 1018.32)"/><path d="M1401.37 221.824C1469.49 286.433 1469.49 286.433 1469.49 286.433 1330.8 286.433 1330.8 286.433 1330.8 286.433 1288.73 242.93 1288.73 242.93 1288.73 242.93 1308.55 242.93 1308.55 242.93 1308.55 242.93 1322.19 242.93 1333.31 231.731 1333.31 219.311 1333.31 206.892 1323.41 194.473 1308.55 194.473 1280.05 194.473 1280.05 194.473 1280.05 194.473 1280.05 286.433 1280.05 286.433 1280.05 286.433 1163.68 286.433 1163.68 286.433 1163.68 286.433 1163.68 152.19 1163.68 152.19 1163.68 152.19 1416.23 152.19 1416.23 152.19 1416.23 152.19 1438.48 152.19 1454.63 168.342 1454.63 188.227 1454.63 206.892 1438.55 221.824 1416.23 221.824L1401.37 221.824Z" fill="#D9D9D9" fill-rule="evenodd" transform="matrix(1 0 0 1.00269 874.081 1018.32)"/><path d="M969.493 152.19C969.493 202.872 969.493 202.872 969.493 202.872 969.493 225.126 983.061 231.3 999.141 231.3 1015.22 231.3 1030.08 223.906 1028.79 202.872 1028.79 152.19 1028.79 152.19 1028.79 152.19 1141.35 152.19 1141.35 152.19 1141.35 152.19 1141.35 231.3 1141.35 231.3 1141.35 231.3 1138.91 269.635 1080.76 294.33 999.141 291.889 913.858 294.33 855.71 268.342 855.71 226.347 855.71 152.19 855.71 152.19 855.71 152.19L969.493 152.19Z" fill="#D9D9D9" fill-rule="evenodd" transform="matrix(1 0 0 1.00269 874.081 1018.32)"/><path d="M554.919 152.19 554.919 218.019 636.111 218.019 636.111 286.433 751.402 286.433 751.402 218.019 834.173 218.019 834.173 152.19 554.919 152.19Z" fill="#D9D9D9" fill-rule="evenodd" transform="matrix(1 0 0 1.00269 874.081 1018.32)"/><path d="M1969.14 152.19 1906.25 210.625 1906.25 152.19 1788.95 152.19 1788.95 286.433 1906.25 286.433 1906.25 229.075 1964.4 286.433 2096.92 286.433 2027.29 216.44 2095.41 152.19 1969.14 152.19Z" fill="#D9D9D9" fill-rule="evenodd" transform="matrix(1 0 0 1.00269 874.081 1018.32)"/></g></g></g></g></svg>