<?xml version="1.0" encoding="utf-8"?>
<!-- Generator: Adobe Illustrator 28.2.0, SVG Export Plug-In . SVG Version: 6.00 Build 0)  -->
<svg version="1.1" id="Camada_1" xmlns="http://www.w3.org/2000/svg" xmlns:xlink="http://www.w3.org/1999/xlink" x="0px" y="0px"
	 viewBox="0 0 2148 207" style="enable-background:new 0 0 2148 207;" xml:space="preserve">
<style type="text/css">
	.st0{fill-rule:evenodd;clip-rule:evenodd;fill:#1D1D1B;}
</style>
<g>
	<g transform="translate(-773 -201)">
		<path class="st0" d="M2465,324.1c-15.5,53.4-94.7,87.9-208.3,82.7C2131.1,412,2045,368.9,2045,305.1
			c0-60.3,86.1-105.1,211.7-103.4c113.6-1.7,192.8,34.5,208.3,87.9c-168.7,0-168.7,0-168.7,0c-8.6-13.8-22.4-22.4-39.6-22.4
			c-24.1,0-43,17.2-43,39.6c0,20.7,18.9,39.6,43,39.6c17.2,0,31-8.6,39.6-22.4H2465z"/>
		<path class="st0" d="M1952.1,309c94.9,90,94.9,90,94.9,90c-193.2,0-193.2,0-193.2,0c-58.6-60.6-58.6-60.6-58.6-60.6
			c27.6,0,27.6,0,27.6,0c19,0,34.5-15.6,34.5-32.9s-13.8-34.6-34.5-34.6c-39.7,0-39.7,0-39.7,0c0,128.1,0,128.1,0,128.1
			c-162.1,0-162.1,0-162.1,0c0-187,0-187,0-187c351.8,0,351.8,0,351.8,0c31,0,53.5,22.5,53.5,50.2c0,26-22.4,46.8-53.5,46.8H1952.1z
			"/>
		<path class="st0" d="M1350.5,212c0,70.6,0,70.6,0,70.6c0,31,18.9,39.6,41.3,39.6s43.1-10.3,41.3-39.6c0-70.6,0-70.6,0-70.6
			c156.8,0,156.8,0,156.8,0c0,110.2,0,110.2,0,110.2c-3.4,53.4-84.4,87.8-198.1,84.4C1273,410,1192,373.8,1192,315.3
			c0-103.3,0-103.3,0-103.3H1350.5z"/>
		<path class="st0" d="M773,212v91.7h113.1V399h160.6v-95.3H1162V212H773z"/>
		<path class="st0" d="M2743,212l-87.6,81.4V212H2492v187h163.4v-79.9l81,79.9H2921l-97-97.5l94.9-89.5H2743z"/>
	</g>
</g>
</svg>
